<mxfile host="app.diagrams.net" modified="2020-11-20T11:31:12.211Z" agent="5.0 (Windows NT 6.1; Win64; x64) AppleWebKit/537.36 (KHTML, like Gecko) Chrome/86.0.4240.111 Safari/537.36" etag="oDSxq0df1ItD7lNUMmeS" version="13.10.0" type="github">
  <diagram id="MeYpmycPdVwunVWfiFyu" name="第 1 页">
    <mxGraphModel dx="852" dy="404" grid="1" gridSize="10" guides="1" tooltips="1" connect="1" arrows="1" fold="1" page="1" pageScale="1" pageWidth="827" pageHeight="1169" math="0" shadow="0">
      <root>
        <mxCell id="0" />
        <mxCell id="1" parent="0" />
        <mxCell id="kBqjKmDMrYYUv0879xMJ-1" value="&lt;font style=&quot;font-size: 25px&quot;&gt;3&lt;/font&gt;" style="whiteSpace=wrap;html=1;aspect=fixed;fillColor=#FF6666;" vertex="1" parent="1">
          <mxGeometry x="280" y="80" width="60" height="60" as="geometry" />
        </mxCell>
        <mxCell id="kBqjKmDMrYYUv0879xMJ-2" value="&lt;font style=&quot;font-size: 25px&quot;&gt;3&lt;/font&gt;" style="whiteSpace=wrap;html=1;aspect=fixed;fillColor=#66B2FF;" vertex="1" parent="1">
          <mxGeometry x="280" y="30" width="60" height="60" as="geometry" />
        </mxCell>
        <mxCell id="kBqjKmDMrYYUv0879xMJ-26" style="edgeStyle=none;rounded=0;orthogonalLoop=1;jettySize=auto;html=1;exitX=1;exitY=0.5;exitDx=0;exitDy=0;dashed=1;" edge="1" parent="1" source="kBqjKmDMrYYUv0879xMJ-3">
          <mxGeometry relative="1" as="geometry">
            <mxPoint x="440" y="170" as="targetPoint" />
          </mxGeometry>
        </mxCell>
        <mxCell id="kBqjKmDMrYYUv0879xMJ-3" value="&lt;font style=&quot;font-size: 25px&quot;&gt;2&lt;/font&gt;" style="whiteSpace=wrap;html=1;aspect=fixed;fillColor=#66B2FF;" vertex="1" parent="1">
          <mxGeometry x="280" y="140" width="60" height="60" as="geometry" />
        </mxCell>
        <mxCell id="kBqjKmDMrYYUv0879xMJ-27" style="edgeStyle=none;rounded=0;orthogonalLoop=1;jettySize=auto;html=1;exitX=1;exitY=0.5;exitDx=0;exitDy=0;dashed=1;" edge="1" parent="1" source="kBqjKmDMrYYUv0879xMJ-4">
          <mxGeometry relative="1" as="geometry">
            <mxPoint x="450" y="230" as="targetPoint" />
          </mxGeometry>
        </mxCell>
        <mxCell id="kBqjKmDMrYYUv0879xMJ-4" value="&lt;font style=&quot;font-size: 25px&quot;&gt;1&lt;/font&gt;" style="whiteSpace=wrap;html=1;aspect=fixed;fillColor=#66B2FF;" vertex="1" parent="1">
          <mxGeometry x="280" y="200" width="60" height="60" as="geometry" />
        </mxCell>
        <mxCell id="kBqjKmDMrYYUv0879xMJ-28" style="edgeStyle=none;rounded=0;orthogonalLoop=1;jettySize=auto;html=1;dashed=1;" edge="1" parent="1" source="kBqjKmDMrYYUv0879xMJ-5">
          <mxGeometry relative="1" as="geometry">
            <mxPoint x="450" y="290" as="targetPoint" />
          </mxGeometry>
        </mxCell>
        <mxCell id="kBqjKmDMrYYUv0879xMJ-5" value="&lt;font style=&quot;font-size: 25px&quot;&gt;0&lt;/font&gt;" style="whiteSpace=wrap;html=1;aspect=fixed;fillColor=#66B2FF;" vertex="1" parent="1">
          <mxGeometry x="280" y="260" width="60" height="60" as="geometry" />
        </mxCell>
        <mxCell id="kBqjKmDMrYYUv0879xMJ-30" style="edgeStyle=none;rounded=0;orthogonalLoop=1;jettySize=auto;html=1;dashed=1;" edge="1" parent="1" source="kBqjKmDMrYYUv0879xMJ-6" target="kBqjKmDMrYYUv0879xMJ-29">
          <mxGeometry relative="1" as="geometry" />
        </mxCell>
        <mxCell id="kBqjKmDMrYYUv0879xMJ-6" value="&lt;font style=&quot;font-size: 25px&quot;&gt;0&lt;/font&gt;" style="whiteSpace=wrap;html=1;aspect=fixed;fillColor=#33FF33;" vertex="1" parent="1">
          <mxGeometry x="280" y="320" width="60" height="60" as="geometry" />
        </mxCell>
        <mxCell id="kBqjKmDMrYYUv0879xMJ-8" style="rounded=0;orthogonalLoop=1;jettySize=auto;html=1;dashed=1;" edge="1" parent="1" source="kBqjKmDMrYYUv0879xMJ-7" target="kBqjKmDMrYYUv0879xMJ-1">
          <mxGeometry relative="1" as="geometry" />
        </mxCell>
        <mxCell id="kBqjKmDMrYYUv0879xMJ-7" value="&lt;font style=&quot;font-size: 25px&quot;&gt;Ta&lt;/font&gt;" style="ellipse;whiteSpace=wrap;html=1;aspect=fixed;fillColor=#FFFF99;" vertex="1" parent="1">
          <mxGeometry x="50" y="85" width="50" height="50" as="geometry" />
        </mxCell>
        <mxCell id="kBqjKmDMrYYUv0879xMJ-9" value="&lt;font style=&quot;font-size: 20px&quot;&gt;await()&lt;/font&gt;" style="text;html=1;strokeColor=none;fillColor=none;align=center;verticalAlign=middle;whiteSpace=wrap;rounded=0;" vertex="1" parent="1">
          <mxGeometry x="170" y="80" width="40" height="20" as="geometry" />
        </mxCell>
        <mxCell id="kBqjKmDMrYYUv0879xMJ-10" value="&lt;font style=&quot;font-size: 25px&quot; color=&quot;#ff3333&quot;&gt;awaiting ...&lt;/font&gt;" style="text;html=1;strokeColor=none;fillColor=none;align=center;verticalAlign=middle;whiteSpace=wrap;rounded=0;" vertex="1" parent="1">
          <mxGeometry x="320" y="101.5" width="206" height="17" as="geometry" />
        </mxCell>
        <mxCell id="kBqjKmDMrYYUv0879xMJ-11" style="rounded=0;orthogonalLoop=1;jettySize=auto;html=1;dashed=1;" edge="1" parent="1" source="kBqjKmDMrYYUv0879xMJ-12">
          <mxGeometry relative="1" as="geometry">
            <mxPoint x="280" y="170.3296703296703" as="targetPoint" />
          </mxGeometry>
        </mxCell>
        <mxCell id="kBqjKmDMrYYUv0879xMJ-12" value="&lt;font style=&quot;font-size: 25px&quot;&gt;T1&lt;/font&gt;" style="ellipse;whiteSpace=wrap;html=1;aspect=fixed;fillColor=#FFFF99;" vertex="1" parent="1">
          <mxGeometry x="50" y="145" width="50" height="50" as="geometry" />
        </mxCell>
        <mxCell id="kBqjKmDMrYYUv0879xMJ-13" value="&lt;font style=&quot;font-size: 20px&quot;&gt;countdonw()&lt;/font&gt;" style="text;html=1;strokeColor=none;fillColor=none;align=center;verticalAlign=middle;whiteSpace=wrap;rounded=0;" vertex="1" parent="1">
          <mxGeometry x="170" y="140" width="40" height="20" as="geometry" />
        </mxCell>
        <mxCell id="kBqjKmDMrYYUv0879xMJ-14" style="rounded=0;orthogonalLoop=1;jettySize=auto;html=1;dashed=1;" edge="1" parent="1" source="kBqjKmDMrYYUv0879xMJ-15">
          <mxGeometry relative="1" as="geometry">
            <mxPoint x="280" y="225.3296703296703" as="targetPoint" />
          </mxGeometry>
        </mxCell>
        <mxCell id="kBqjKmDMrYYUv0879xMJ-15" value="&lt;font style=&quot;font-size: 25px&quot;&gt;T2&lt;/font&gt;" style="ellipse;whiteSpace=wrap;html=1;aspect=fixed;fillColor=#FFFF99;" vertex="1" parent="1">
          <mxGeometry x="50" y="200" width="50" height="50" as="geometry" />
        </mxCell>
        <mxCell id="kBqjKmDMrYYUv0879xMJ-16" value="&lt;font style=&quot;font-size: 20px&quot;&gt;countdown()&lt;/font&gt;" style="text;html=1;strokeColor=none;fillColor=none;align=center;verticalAlign=middle;whiteSpace=wrap;rounded=0;" vertex="1" parent="1">
          <mxGeometry x="170" y="195" width="40" height="20" as="geometry" />
        </mxCell>
        <mxCell id="kBqjKmDMrYYUv0879xMJ-17" style="rounded=0;orthogonalLoop=1;jettySize=auto;html=1;dashed=1;" edge="1" parent="1" source="kBqjKmDMrYYUv0879xMJ-18">
          <mxGeometry relative="1" as="geometry">
            <mxPoint x="280" y="290.3296703296703" as="targetPoint" />
          </mxGeometry>
        </mxCell>
        <mxCell id="kBqjKmDMrYYUv0879xMJ-18" value="&lt;font style=&quot;font-size: 25px&quot;&gt;T3&lt;/font&gt;" style="ellipse;whiteSpace=wrap;html=1;aspect=fixed;fillColor=#FFFF99;" vertex="1" parent="1">
          <mxGeometry x="50" y="265" width="50" height="50" as="geometry" />
        </mxCell>
        <mxCell id="kBqjKmDMrYYUv0879xMJ-19" value="&lt;font style=&quot;font-size: 20px&quot;&gt;countdown()&lt;/font&gt;" style="text;html=1;strokeColor=none;fillColor=none;align=center;verticalAlign=middle;whiteSpace=wrap;rounded=0;" vertex="1" parent="1">
          <mxGeometry x="170" y="260" width="40" height="20" as="geometry" />
        </mxCell>
        <mxCell id="kBqjKmDMrYYUv0879xMJ-21" value="&lt;font style=&quot;font-size: 25px&quot;&gt;continue&lt;/font&gt;" style="text;html=1;strokeColor=none;fillColor=none;align=center;verticalAlign=middle;whiteSpace=wrap;rounded=0;" vertex="1" parent="1">
          <mxGeometry x="480" y="220" width="40" height="20" as="geometry" />
        </mxCell>
        <mxCell id="kBqjKmDMrYYUv0879xMJ-24" value="&lt;font style=&quot;font-size: 25px&quot;&gt;continue&lt;/font&gt;" style="text;html=1;strokeColor=none;fillColor=none;align=center;verticalAlign=middle;whiteSpace=wrap;rounded=0;" vertex="1" parent="1">
          <mxGeometry x="480" y="160" width="40" height="20" as="geometry" />
        </mxCell>
        <mxCell id="kBqjKmDMrYYUv0879xMJ-25" value="&lt;font style=&quot;font-size: 25px&quot;&gt;continue&lt;/font&gt;" style="text;html=1;strokeColor=none;fillColor=none;align=center;verticalAlign=middle;whiteSpace=wrap;rounded=0;" vertex="1" parent="1">
          <mxGeometry x="480" y="280" width="40" height="20" as="geometry" />
        </mxCell>
        <mxCell id="kBqjKmDMrYYUv0879xMJ-29" value="&lt;font style=&quot;font-size: 25px&quot; color=&quot;#ff3333&quot;&gt;Ta resumed&lt;/font&gt;" style="text;html=1;strokeColor=none;fillColor=none;align=center;verticalAlign=middle;whiteSpace=wrap;rounded=0;" vertex="1" parent="1">
          <mxGeometry x="440" y="335" width="140" height="30" as="geometry" />
        </mxCell>
      </root>
    </mxGraphModel>
  </diagram>
</mxfile>
